<?xml version="1.0"?>
<svg xmlns:rdf="http://www.w3.org/1999/02/22-rdf-syntax-ns#" xmlns="http://www.w3.org/2000/svg" xmlns:cc="http://web.resource.org/cc/" xmlns:dc="http://purl.org/dc/elements/1.1/" xmlns:svg="http://www.w3.org/2000/svg" id="svg3945" height="300" width="300" viewBox="0 0 332.29 485.2" version="1.1">
  <g id="layer1" transform="translate(-182.43 -261.19)">
    <g id="g3812" transform="matrix(.5 0 0 .5 161.18 239.86)">
      <path id="path3637" d="m47.395 337.48c17.985 183.32 17.178 363.5 2.858 541.43 57.527 45.07 117.52 87.98 180.43 128.29 128.45-42.57 256.77-85.35 370.75-147.69 4.16-187.05 11.62-375.77 1.51-561.52-61.67-37.01-123.57-63.85-181.51-97.06l-374.04 136.55z" fill="#f2c802"/>
      <path id="path3698" d="m422.84 193.44c-81.38 29.92-202.16 78.11-380.34 141.44 14.677 288.06 12.566 453.65 0.34375 545.34 115.36 91.999 146.33 108.31 186.44 132.84 87.914-21.796 189.58-53.734 378.56-150 7.0162-210.73 17.454-381.19-2.5-570.69-60.763-38.588-126.9-61.119-182.5-98.938zm-1.625 13.438c53.992 33.335 104.3 49.504 165.69 88.875-24.201 18.088-211.07 76.253-358.62 138.41-16.637-17.707-35.894-32.794-56.562-46.469 0 0 68.543-29.752 64.656-34.344-3.8866-4.592-92.938 22.219-92.938 22.219-11.12-15.97-33.12-25.39-57.575-33.35 122.16-42.26 223.42-90.43 335.34-135.34zm176.28 105.3c1.2539 180.27 1.241 359.9-2.8572 537.5-116.71 48.55-216.75 107.11-357.48 141.26 6.52-179.09 10.42-357.85-0.56-533.23 130.4-43.46 248-94.84 360.9-145.54zm-539.91 47.23c27.909 7.217 54.146 16.822 72.719 37.375-3.7755 40.426-7.8255 80.739-8.3438 122.47-20.358-54.579-40.111-109.82-64.375-159.84zm5.5312 44.438c19.403 49.192 32.595 100.53 58.094 148.5 36.571-25.07 65.952-50.113 93.938-78.812 14.51 184.5 10.64 351.16 2.03 517.21-51.17-35.34-104.28-71.1-158.1-109.09 10.883-153 19.17-317.09 4.035-477.82zm87.906 2.0312c23.283 10.429 44.196 23.013 60.094 40.156-20.778 28.17-42.388 55.984-71.719 75.75 2.2376-40.507 4.7602-80.688 11.625-115.91z" fill="#000002"/>
      <path id="path3641" d="m419.02 263.62c-2.5794 10.275 49.401 19.692 58.526 13.132 4.0137-2.8858-5.5336-9.2575-5.3033-9.7858 12.582-87.014 40.765-137.85 62.882-176.52 0.95421-1.6687 2.1444-2.71 5.3033-0.75762 44.072 27.239 89.732 46.792 143.95 63.892 28.522-7.0181 27.723-37.99 11.112-45.204l-158.08-63.898c-7.5449-3.0493-14.978-2.278-24.244 2.5254-30.543 15.834-56.157 128.61-76.772 214.91-6.4818-0.75762-16.591-1.3661-17.362 1.7046z"/>
      <path id="path3645" d="m443.71 258.63c-1.7872 9.6781 19.619 17.677 21.466 7.8287 14.588-77.803 35.465-137.9 65.407-176.78 4.0619-5.2736-19.092-6.9021-16.162-12.879 2.3675-4.8306 13.003 6.4652 14.9 5.3033 2.9282-1.7934-2.7748-13.528 2.0203-14.142 4.3104-0.55195 2.0874 11.557 4.7982 12.122 3.4327 0.71499 12.159-13.28 14.647-10.354 2.5952 3.0509-14.527 10.545-9.849 13.637 41.966 27.742 91.502 44.578 138.64 61.872-2.5174-17.243 0.0768-29.055 8.3338-34.85-0.29 0.74-133.04-51.447-149.5-59.342-13.01-6.24-18.68-4.428-26.26 4.546-23.31 27.59-54.24 126.17-68.44 203.04z" fill="#c0c0c0"/>
      <path id="path3672" fill="#fff" d="m685.33 142.81c0.90862 3.2016 2.761 3.9708 5.671 2.4842 14.172-7.24 11.559-26.063 4.849-28.442-6.5548-2.3237-13.112 16.823-10.52 25.958z"/>
    </g>
  </g>
  <metadata>
    <rdf:RDF>
      <cc:Work>
        <dc:format>image/svg+xml</dc:format>
        <dc:type rdf:resource="http://purl.org/dc/dcmitype/StillImage"/>
        <cc:license rdf:resource="http://creativecommons.org/licenses/publicdomain/"/>
        <dc:publisher>
          <cc:Agent rdf:about="http://openclipart.org/">
            <dc:title>Openclipart</dc:title>
          </cc:Agent>
        </dc:publisher>
        <dc:title>Juice Box with Straw</dc:title>
        <dc:date>2006-12-26T00:00:00</dc:date>
        <dc:description>Juice box with a straw</dc:description>
        <dc:source>http://openclipart.org/detail/29521/juice-box-with-straw-by-orsonj</dc:source>
        <dc:creator>
          <cc:Agent>
            <dc:title>orsonj</dc:title>
          </cc:Agent>
        </dc:creator>
        <dc:subject>
          <rdf:Bag>
            <rdf:li>box</rdf:li>
            <rdf:li>clip art</rdf:li>
            <rdf:li>clipart</rdf:li>
            <rdf:li>drink</rdf:li>
            <rdf:li>juice</rdf:li>
            <rdf:li>straw</rdf:li>
          </rdf:Bag>
        </dc:subject>
      </cc:Work>
      <cc:License rdf:about="http://creativecommons.org/licenses/publicdomain/">
        <cc:permits rdf:resource="http://creativecommons.org/ns#Reproduction"/>
        <cc:permits rdf:resource="http://creativecommons.org/ns#Distribution"/>
        <cc:permits rdf:resource="http://creativecommons.org/ns#DerivativeWorks"/>
      </cc:License>
    </rdf:RDF>
  </metadata>
</svg>
