<?xml version="1.0"?>
<svg xmlns:rdf="http://www.w3.org/1999/02/22-rdf-syntax-ns#" xmlns="http://www.w3.org/2000/svg" xmlns:cc="http://creativecommons.org/ns#" xmlns:xlink="http://www.w3.org/1999/xlink" xmlns:dc="http://purl.org/dc/elements/1.1/" xmlns:svg="http://www.w3.org/2000/svg" id="svg2" height="300" width="300" viewBox="0 0 168.58 309.57" version="1.0">
  <defs id="defs4">
    <linearGradient id="linearGradient18010">
      <stop id="stop18012" stop-color="#c5c5c5" stop-opacity=".53608" offset="0"/>
      <stop id="stop18014" stop-color="#fff" offset="1"/>
    </linearGradient>
    <linearGradient id="linearGradient15333">
      <stop id="stop15335" stop-color="#fff" stop-opacity="0" offset="0"/>
      <stop id="stop15341" stop-color="#7f7f7f" stop-opacity=".061856" offset=".76786"/>
      <stop id="stop15339" stop-opacity=".36082" offset="1"/>
    </linearGradient>
    <linearGradient id="linearGradient5452" y2="62.279" gradientUnits="userSpaceOnUse" x2="270.05" y1="81.64" x1="270.05">
      <stop id="stop3674" stop-color="#2f2f2f" offset="0"/>
      <stop id="stop3676" stop-color="#ba161d" offset="1"/>
    </linearGradient>
    <radialGradient id="radialGradient4628" gradientUnits="userSpaceOnUse" cy="-360.53" cx="592.49" gradientTransform="matrix(-8.4513e-7 -.64443 .20479 0 464.76 880.35)" r="174.66">
      <stop id="stop6037" stop-color="#fff" stop-opacity="0" offset="0"/>
      <stop id="stop6043" stop-color="#fff" offset=".88397"/>
      <stop id="stop6039" stop-opacity=".23711" offset="1"/>
    </radialGradient>
    <radialGradient id="radialGradient14440" xlink:href="#linearGradient15333" gradientUnits="userSpaceOnUse" cy="-1153.1" cx="80.319" gradientTransform="matrix(.0000053482 -.75604 .33196 0 783.37 557.22)" r="174.66"/>
    <linearGradient id="linearGradient18008" y2="628.84" xlink:href="#linearGradient18010" gradientUnits="userSpaceOnUse" x2="844.71" gradientTransform="matrix(.35646 0 0 .35778 103.06 383.59)" y1="628.84" x1="812.87"/>
    <linearGradient id="linearGradient18026" y2="-208.88" gradientUnits="userSpaceOnUse" x2="657.29" gradientTransform="matrix(.35646 0 0 .35778 166.3 638.17)" y1="-307.17" x1="657.29">
      <stop id="stop10859" stop-color="#fff" stop-opacity="0" offset="0"/>
      <stop id="stop19801" stop-color="#fff" stop-opacity=".19588" offset=".55357"/>
      <stop id="stop10861" stop-color="#fff" stop-opacity=".46392" offset="1"/>
    </linearGradient>
    <radialGradient id="radialGradient2121" xlink:href="#linearGradient18010" gradientUnits="userSpaceOnUse" cy="86.914" cx="266.99" gradientTransform="matrix(1 0 0 .17658 0 71.567)" r="138.92"/>
    <radialGradient id="radialGradient2125" gradientUnits="userSpaceOnUse" cy="85.437" cx="276.19" gradientTransform="matrix(.93378 0 0 .15251 18.291 73.884)" r="138.92">
      <stop id="stop3455" stop-color="#fff" stop-opacity="0" offset="0"/>
      <stop id="stop3457" stop-color="#7f7f7f" stop-opacity=".061856" offset=".76786"/>
      <stop id="stop3459" stop-opacity=".36082" offset="1"/>
    </radialGradient>
    <linearGradient id="linearGradient25034" y2="-163.44" gradientUnits="userSpaceOnUse" x2="-520.4" gradientTransform="matrix(.35646 0 0 .35778 583.18 696.26)" y1="-148.96" x1="-563.35">
      <stop id="stop1906" stop-color="#dbdbdb" offset="0"/>
      <stop id="stop1910" stop-color="#3a3a3a" offset=".32143"/>
      <stop id="stop1908" stop-color="#d3d3d3" offset="1"/>
    </linearGradient>
    <linearGradient id="linearGradient25036" y2="-327.52" xlink:href="#linearGradient15333" gradientUnits="userSpaceOnUse" x2="-514.2" gradientTransform="matrix(.35646 0 0 .35778 583.18 696.26)" y1="-311.43" x1="-529.94"/>
    <linearGradient id="linearGradient3243" y2="-769.28" gradientUnits="userSpaceOnUse" x2="-367.88" gradientTransform="matrix(.35646 0 0 .35778 583.18 696.26)" y1="-619.57" x1="-672.48">
      <stop id="stop3247" offset="0"/>
      <stop id="stop3249" stop-opacity="0" offset="1"/>
    </linearGradient>
    <linearGradient id="linearGradient3311" y2="-617.91" gradientUnits="userSpaceOnUse" x2="-668.85" gradientTransform="matrix(.35646 0 0 .35778 583.18 696.26)" y1="-621.23" x1="-689.83">
      <stop id="stop3307" offset="0"/>
      <stop id="stop3309" stop-opacity="0" offset="1"/>
    </linearGradient>
    <radialGradient id="radialGradient3439" gradientUnits="userSpaceOnUse" cy="73.803" cx="267.89" gradientTransform="matrix(.91741 0 0 .13047 27.475 76.108)" r="138.92">
      <stop id="stop3435" stop-color="#c5c5c5" stop-opacity="0" offset="0"/>
      <stop id="stop3443" stop-color="#fff" offset=".46224"/>
      <stop id="stop3441" stop-color="#c5c5c5" stop-opacity="0" offset=".67403"/>
      <stop id="stop3437" stop-color="#fff" offset="1"/>
    </radialGradient>
  </defs>
  <g id="layer1" transform="translate(-317.09 -399.08)">
    <path id="path14422" opacity=".4" d="m350.46 432.6s-11.79 27.31-11.79 63.25c0 6.04 0.63 11.62 1.78 16.77 0.01-7.9 26.94-14.3 59.9-14.3 32.95 0 60.12 6.4 60.22 14.35 1.27-5.14 1.91-10.75 1.91-16.82 0-35.63-11.8-63.18-11.81-63.2-0.01-6.41-23.44-11.6-50.75-11.6-27.3 0-49.46 5.16-49.46 11.55z" fill="url(#radialGradient14440)"/>
    <path id="path6658" d="m405.91 86.914a138.92 24.53 0 1 1 -277.84 0 138.92 24.53 0 1 1 277.84 0z" fill="url(#radialGradient2121)" transform="matrix(.35481 0 0 .81655 305.49 596.19)" fill-opacity=".76974"/>
    <path id="path2123" d="m405.91 86.914a138.92 24.53 0 1 1 -277.84 0 138.92 24.53 0 1 1 277.84 0z" fill="url(#radialGradient2125)" transform="matrix(.35481 0 0 .81655 305.49 596.19)" fill-opacity=".76974"/>
    <path id="path9024" d="m340.54 513.24c-1.51-7.72 26.74-14.78 59.7-14.78 32.95 0 61.7 6.59 60.12 14.78-7.76 40.38-48.97 54.27-59.9 54.27-11.2 0-52.13-14.37-59.92-54.27z" fill-rule="evenodd"/>
    <path id="path3670" d="m405.91 86.914a138.92 24.53 0 1 1 -277.84 0 138.92 24.53 0 1 1 277.84 0z" fill="url(#linearGradient5452)" transform="matrix(.43134 0 0 .58281 285.56 461.88)"/>
    <path id="path3711" opacity=".2" d="m460.62 511.96c1.05-4.97 1.87-10.32 1.87-16.08 0-35.64-11.81-63.23-11.81-63.23 0 6.4-22.29 11.59-49.6 11.59-27.3 0-50.59-5.19-50.59-11.58 0 0-11.8 27.27-11.8 63.22 0 5.77 0.58 11.13 1.73 16.08 0.11 7.87 26.95 14.28 60.03 14.28s60.17-6.39 60.17-14.28z" fill="url(#radialGradient4628)"/>
    <path id="path18018" d="m450.68 432.7s11.82 27.59 11.82 63.22c0 53.34-49.49 71.52-61.9 71.52-12.74 0-61.91-18.18-61.91-71.52 0-35.94 11.8-63.21 11.8-63.21 0 6.39 23.29 11.58 50.59 11.58 27.31 0 49.6-5.19 49.6-11.59z" fill="url(#linearGradient18026)"/>
    <path id="path18914" d="m389.29 567.21c7.26 3.08 15.9 4.08 21.19 0.21-1.89 2.2-1.42 3.28-2.53 5.64-3.45 7.32-5.13 38.86-5.13 36.14 0-13.47 1.07-24.77-5.44-32.87-0.87-1.07-3.5-2.2-8.09-9.12z" fill-rule="evenodd" stroke="#fff" stroke-width="1px" fill="url(#linearGradient25036)"/>
    <path id="path2127" d="m405.91 86.914a138.92 24.53 0 1 1 -277.84 0 138.92 24.53 0 1 1 277.84 0z" fill="url(#radialGradient3439)" transform="matrix(.36460 0 0 .88333 303.15 587.53)"/>
    <path id="path11977" d="m397.29 619.51c2.19-2.4-0.62 20.54 8.1 27.51 3.87 3.09 4.71 12.39 3.85 14.67-3.67 9.83-27.55 2.56-22.81-1.76 13.4-12.19 8.32-37.64 10.86-40.42z" fill="url(#linearGradient25034)" fill-rule="evenodd"/>
    <path id="path18004" d="m400.53 567.22c4.09 0 8.55-0.48 12.72-2.27-8.63 10.64-8.21 27.93-8.21 50.41 0 23.65-0.16 36.96 10.77 43.86 4.61 2.91-5.25 8.56-15.28 8.56s-19.89-5.65-15.28-8.56c10.93-6.9 10.76-20.21 10.76-43.86 0-22.48 0.43-39.77-8.2-50.41 4.17 1.79 8.63 2.27 12.72 2.27z" fill="url(#linearGradient18008)" fill-rule="evenodd"/>
    <path id="path2458" opacity=".4" d="m400.93 421.39c-27.31 0-49.47 5.16-49.47 11.56 0 0 0.03 0.1 0.03 0.1 0 6.39 23.29 11.58 50.6 11.58 27.29 0 49.57-5.19 49.6-11.58l-0.02-0.06c-0.02-6.41-23.44-11.6-50.74-11.6z" stroke="url(#linearGradient3243)" stroke-width="2" fill="none"/>
    <path id="path3253" d="m340.95 513.66c-1.29-5.46-2.01-11.41-2.01-17.88 0-35.94 11.79-62.66 11.81-62.65 0.02 1.16 1.32 2.33 2.7 3.38-3.17 8.56-10.43 31.31-10.43 59.27 0 6.47 0.73 12.42 2.02 17.88" fill="url(#linearGradient3311)" stroke-opacity="0" fill-rule="evenodd"/>
  </g>
  <metadata>
    <rdf:RDF>
      <cc:Work>
        <dc:format>image/svg+xml</dc:format>
        <dc:type rdf:resource="http://purl.org/dc/dcmitype/StillImage"/>
        <cc:license rdf:resource="http://creativecommons.org/licenses/publicdomain/"/>
        <dc:publisher>
          <cc:Agent rdf:about="http://openclipart.org/">
            <dc:title>Openclipart</dc:title>
          </cc:Agent>
        </dc:publisher>
        <dc:title>red wine glass</dc:title>
        <dc:date>2009-01-26T00:07:11</dc:date>
        <dc:description>wine glass with some tastie red wine in it.</dc:description>
        <dc:source>http://openclipart.org/detail/21260/red-wine-glass-by-gmcglinn</dc:source>
        <dc:creator>
          <cc:Agent>
            <dc:title>GMcGlinn</dc:title>
          </cc:Agent>
        </dc:creator>
        <dc:subject>
          <rdf:Bag>
            <rdf:li>alcohol</rdf:li>
            <rdf:li>clip art</rdf:li>
            <rdf:li>clipart</rdf:li>
            <rdf:li>france</rdf:li>
            <rdf:li>glass</rdf:li>
            <rdf:li>image</rdf:li>
            <rdf:li>media</rdf:li>
            <rdf:li>png</rdf:li>
            <rdf:li>public domain</rdf:li>
            <rdf:li>red wine</rdf:li>
            <rdf:li>svg</rdf:li>
            <rdf:li>tableware</rdf:li>
            <rdf:li>vino</rdf:li>
            <rdf:li>wine</rdf:li>
          </rdf:Bag>
        </dc:subject>
      </cc:Work>
      <cc:License rdf:about="http://creativecommons.org/licenses/publicdomain/">
        <cc:permits rdf:resource="http://creativecommons.org/ns#Reproduction"/>
        <cc:permits rdf:resource="http://creativecommons.org/ns#Distribution"/>
        <cc:permits rdf:resource="http://creativecommons.org/ns#DerivativeWorks"/>
      </cc:License>
    </rdf:RDF>
  </metadata>
</svg>
