<?xml version="1.0" encoding="UTF-8" standalone="no"?>
<!-- Created with Inkscape (http://www.inkscape.org/) -->

<svg
   xmlns:i="http://ns.adobe.com/AdobeIllustrator/10.0/"
   xmlns:dc="http://purl.org/dc/elements/1.1/"
   xmlns:cc="http://creativecommons.org/ns#"
   xmlns:rdf="http://www.w3.org/1999/02/22-rdf-syntax-ns#"
   xmlns:svg="http://www.w3.org/2000/svg"
   xmlns="http://www.w3.org/2000/svg"
   xmlns:xlink="http://www.w3.org/1999/xlink"
   xmlns:sodipodi="http://sodipodi.sourceforge.net/DTD/sodipodi-0.dtd"
   xmlns:inkscape="http://www.inkscape.org/namespaces/inkscape"
   id="svg2266"
   sodipodi:docname="soft_ice_cherry_morgaine1976.svg"
   viewBox="0 0 500 300"
   sodipodi:version="0.32"
   version="1.0"
   inkscape:output_extension="org.inkscape.output.svg.inkscape"
   inkscape:version="0.91pre3 r13670"
   width="300"
   height="300"
   inkscape:export-filename="D:\__programmieren\Images\candyland\candylandBackground.png"
   inkscape:export-xdpi="335.17242"
   inkscape:export-ydpi="335.17242"
   style="enable-background:new">
  <defs
     id="defs2268">
    <linearGradient
       id="linearGradient7940"
       inkscape:collect="always">
      <stop
         id="stop7942"
         style="stop-color:#ffffff"
         offset="0" />
      <stop
         id="stop7944"
         style="stop-color:#ffffff;stop-opacity:0"
         offset="1" />
    </linearGradient>
    <linearGradient
       inkscape:collect="always"
       xlink:href="#linearGradient7940"
       id="linearGradient8277-9"
       gradientUnits="userSpaceOnUse"
       gradientTransform="matrix(-0.3511515,-0.30123517,0.36942744,-0.19248424,674.34604,448.35756)"
       x1="198.69366"
       y1="251.65976"
       x2="219.85443"
       y2="291.10422" />
    <linearGradient
       inkscape:collect="always"
       xlink:href="#linearGradient7940"
       id="linearGradient8277-6"
       gradientUnits="userSpaceOnUse"
       gradientTransform="matrix(-0.34704593,-0.33693911,0.36510818,-0.21529846,659.20623,500.31713)"
       x1="198.69366"
       y1="251.65976"
       x2="219.85443"
       y2="291.10422" />
    <radialGradient
       id="radialGradient2528"
       gradientUnits="userSpaceOnUse"
       cy="448.48001"
       cx="456.31"
       gradientTransform="matrix(0.36169703,-0.01020182,0.09924066,0.4607893,508.6677,79.52091)"
       r="35.800999"
       inkscape:collect="always">
      <stop
         id="stop6823"
         style="stop-color:#e79b9e"
         offset="0" />
      <stop
         id="stop6825"
         style="stop-color:#890f18;stop-opacity:0"
         offset="1" />
    </radialGradient>
    <linearGradient
       id="linearGradient2525"
       y2="6.4446998"
       gradientUnits="userSpaceOnUse"
       x2="123.64"
       gradientTransform="matrix(0.20096,0,0,0.42269,137.87,41.748)"
       y1="-14.569"
       x1="-259.92999"
       inkscape:collect="always">
      <stop
         id="stop2590"
         style="stop-color:#eec28a;stop-opacity:.43590"
         offset="0" />
      <stop
         id="stop2592"
         style="stop-color:#ffffff;stop-opacity:.040816"
         offset="1" />
    </linearGradient>
    <linearGradient
       inkscape:collect="always"
       xlink:href="#linearGradient7940"
       id="linearGradient8277-1"
       gradientUnits="userSpaceOnUse"
       gradientTransform="matrix(-0.24235366,-0.20883908,0.25496713,-0.13344468,695.14451,389.20663)"
       x1="198.69366"
       y1="251.65976"
       x2="219.85443"
       y2="291.10422" />
  </defs>
  <sodipodi:namedview
     id="base"
     bordercolor="#666666"
     inkscape:pageshadow="2"
     inkscape:guide-bbox="true"
     pagecolor="#fffdff"
     inkscape:zoom="3.0241379"
     inkscape:window-width="1920"
     showgrid="false"
     borderopacity="1.0"
     inkscape:current-layer="layer7"
     inkscape:cx="240"
     inkscape:cy="145"
     inkscape:window-y="-8"
     inkscape:window-x="-8"
     inkscape:window-height="1027"
     inkscape:pageopacity="0.0000000"
     showguides="false"
     inkscape:window-maximized="1"
     units="px"
     showborder="true"
     width="480mm" />
  <metadata
     id="metadata109">
    <rdf:RDF>
      <cc:Work>
        <dc:format>image/svg+xml</dc:format>
        <dc:type
           rdf:resource="http://purl.org/dc/dcmitype/StillImage" />
        <cc:license
           rdf:resource="http://creativecommons.org/publicdomain/zero/1.0/" />
        <dc:publisher>
          <cc:Agent
             rdf:about="http://openclipart.org/">
            <dc:title>Openclipart</dc:title>
          </cc:Agent>
        </dc:publisher>
        <dc:title />
        <dc:date>2006-12-26T00:00:00</dc:date>
        <dc:description />
        <dc:source>https://openclipart.org/detail/24916/-by--24916</dc:source>
        <dc:creator>
          <cc:Agent>
            <dc:title>Anonymous</dc:title>
          </cc:Agent>
        </dc:creator>
      </cc:Work>
      <cc:License
         rdf:about="http://creativecommons.org/publicdomain/zero/1.0/">
        <cc:permits
           rdf:resource="http://creativecommons.org/ns#Reproduction" />
        <cc:permits
           rdf:resource="http://creativecommons.org/ns#Distribution" />
        <cc:permits
           rdf:resource="http://creativecommons.org/ns#DerivativeWorks" />
      </cc:License>
    </rdf:RDF>
  </metadata>
  <g
     inkscape:groupmode="layer"
     id="layer7"
     inkscape:label="icecream"
     style="display:inline"
     transform="translate(0,-310.00007)"
     sodipodi:insensitive="true">
    <g
       id="g7109"
       transform="matrix(0.81128927,0,0,0.81128927,-327.82056,164.22137)">
      <path
         inkscape:connector-curvature="0"
         id="path7"
         i:knockout="Off"
         d="m 649.19196,380.01993 c -0.972,1.908 -1.368,3.78 -0.792,5.616 0.396,1.836 1.764,3.636 3.708,5.4 l 2.7,29.089 c -0.936,0.971 -1.44,2.051 -1.656,2.844 -0.216,0.791 -0.504,1.043 0.504,2.16 0.936,0.971 3.492,3.131 5.292,4.104 1.692,0.9 3.312,1.404 5.004,1.512 1.872,1.404 3.24,3.816 4.248,7.381 0.936,3.455 0.576,6.768 1.44,13.68 0.72,6.803 2.052,20.447 3.168,27.324 1.116,6.803 2.052,11.16 3.204,13.355 -0.792,2.951 -0.864,5.615 -0.072,7.992 0.72,2.268 0.972,4.32 4.644,6.012 3.708,1.729 11.196,3.707 17.172,4.283 5.868,0.469 13.141,-0.576 17.784,-1.332 4.464,-0.756 7.416,-1.08 9.432,-3.348 2.017,-2.484 2.664,-6.047 2.34,-11.088 0.576,-3.959 1.08,-7.199 1.513,-9.863 0.359,-2.736 0.647,-2.197 1.008,-6.156 0.252,-4.213 0.396,-11.953 1.008,-18.072 0.576,-6.156 1.872,-13.896 2.772,-18.359 0.72,-4.537 1.332,-6.445 2.268,-8.496 0.864,-2.16 1.368,-2.629 3.456,-4.176 2.088,-1.656 4.968,-3.492 8.928,-5.508 -0.359,-2.09 -0.576,-5.006 -0.647,-8.605 -0.181,-3.744 -0.324,-9.18 -0.145,-13.248 0.036,-4.104 0.396,-7.848 0.792,-11.231 1.261,-0.72 2.16,-1.728 2.845,-3.024 0.684,-1.44 1.008,-2.988 1.115,-5.04 2.628,-3.204 4.104,-6.408 4.824,-9.756 0.576,-3.42 0.288,-7.128 -1.008,-10.152 -1.332,-3.06 -3.528,-5.688 -6.732,-8.028 3.456,-3.204 5.112,-6.624 5.257,-10.692 0,-4.176 -2.521,-10.224 -4.788,-13.428 -2.305,-3.204 -5.221,-5.004 -8.748,-5.544 2.447,-4.932 2.987,-9.468 1.62,-13.752 -1.44,-4.356 -5.545,-7.848 -10.08,-11.844 -4.645,-4.068 -13.32,-7.776 -17.28,-12.096 -4.068,-4.5 -3.636,-11.556 -6.336,-14.22 -2.809,-2.7 -8.244,-2.412 -9.648,-1.908 -1.332,0.432 1.224,2.7 1.404,4.32 -0.036,1.368 1.044,2.736 -1.332,4.644 -2.484,1.908 -10.044,4.176 -13.104,6.948 -3.168,2.7 -4.716,5.76 -5.184,9.324 -7.812,5.04 -13.428,9.72 -16.848,14.04 -3.492,4.284 -3.636,7.596 -3.888,11.736 -0.288,4.104 0.36,8.244 2.088,12.708 -8.784,4.428 -14.688,9.396 -17.856,14.76 -3.24,5.436 -2.016,12.384 -1.188,17.496 0.722,4.998 2.702,9.028 5.798,12.268 z"
         style="clip-rule:evenodd;fill-rule:evenodd;stroke:#000000;stroke-width:0.036;stroke-miterlimit:10" />
      <path
         style="clip-rule:evenodd;fill:#fffb89;fill-opacity:1;fill-rule:evenodd;stroke:#000000;stroke-width:1;stroke-miterlimit:10;stroke-dasharray:none"
         inkscape:connector-curvature="0"
         id="path9"
         i:knockout="Off"
         d="m 701.78796,272.66893 c 2.484,-0.036 4.536,0.612 5.76,2.34 1.188,1.584 0.468,4.716 1.872,7.452 1.296,2.556 2.484,5.04 6.336,8.424 3.888,3.312 12.528,7.92 16.74,11.484 3.96,3.384 6.3,5.436 7.452,9.216 1.116,3.744 0.899,8.316 -0.648,13.572 -7.704,0.324 -15.048,-0.216 -22.716,-1.764 -7.704,-1.656 -17.316,-4.572 -22.716,-7.38 -5.364,-2.772 -7.668,-5.76 -9.432,-9.108 -1.908,-3.384 -2.448,-7.668 -1.764,-10.764 0.648,-3.276 2.772,-5.94 5.544,-7.992 2.664,-1.98 7.92,-2.7 10.476,-4.104 2.376,-1.548 3.744,-3.204 4.249,-5.112 0.503,-2.016 0.07,-3.924 -1.153,-6.264 z" />
      <path
         style="clip-rule:evenodd;fill:#fffb89;fill-opacity:1;fill-rule:evenodd;stroke:#000000;stroke-width:1;stroke-miterlimit:10;stroke-dasharray:none"
         inkscape:connector-curvature="0"
         id="path11"
         i:knockout="Off"
         d="m 680.61996,298.98493 c -0.432,3.852 0.036,7.2 1.8,10.188 1.62,2.952 3.42,4.932 8.316,7.488 4.788,2.484 14.22,5.4 20.952,7.344 6.696,1.728 14.112,2.736 19.332,3.42 5.04,0.612 8.496,-0.828 11.484,0.396 2.988,1.116 5.004,3.888 6.588,6.66 1.548,2.628 2.772,6.336 2.557,9.612 -0.288,3.24 -1.692,6.516 -4.213,9.972 -3.491,-1.872 -8.855,-3.168 -16.235,-3.888 -7.416,-0.864 -19.296,-0.18 -28.008,-0.576 -8.928,-0.468 -18.396,0.288 -24.66,-1.62 -6.3,-2.016 -9.972,-6.48 -12.672,-10.188 -2.808,-3.78 -3.564,-8.172 -3.672,-12.204 -0.108,-4.248 0.864,-9.036 2.772,-12.564 1.8,-3.528 5.364,-5.76 8.064,-8.064 2.617,-2.376 5.1,-4.32 7.585,-5.976 z" />
      <path
         style="clip-rule:evenodd;fill:#fffb89;fill-opacity:1;fill-rule:evenodd;stroke:#000000;stroke-width:1;stroke-miterlimit:10;stroke-dasharray:none"
         inkscape:connector-curvature="0"
         id="path13"
         i:knockout="Off"
         d="m 663.33996,337.32493 c 0.432,1.908 1.656,3.96 4.068,6.156 2.304,2.196 4.392,5.292 9.864,6.768 5.4,1.188 14.508,0.936 22.752,1.188 8.244,0.144 19.08,0 26.244,0.54 6.984,0.504 11.629,1.224 15.876,2.7 4.213,1.404 7.272,2.952 9.324,5.76 1.944,2.736 2.592,6.588 2.376,10.584 -0.252,3.816 -1.62,7.884 -3.96,12.348 -9.324,3.24 -19.403,5.4 -30.384,6.336 -11.124,0.9 -24.084,1.008 -35.388,-0.648 -11.448,-1.728 -25.596,-4.104 -32.184,-9.504 -6.588,-5.652 -8.856,-16.272 -6.948,-23.4 1.942,-7.171 7.882,-13.219 18.358,-18.835 z" />
      <path
         style="clip-rule:evenodd;fill:#916423;fill-opacity:1;fill-rule:evenodd;stroke:#000000;stroke-width:0.036;stroke-miterlimit:10"
         inkscape:connector-curvature="0"
         id="path15"
         i:knockout="Off"
         d="m 744.30596,392.97993 c -8.136,3.779 -17.352,6.229 -28.08,7.199 -10.836,0.865 -25.848,-0.072 -36.144,-1.439 -10.332,-1.404 -18.612,-3.6 -25.272,-6.732 -2.088,-2.16 -3.204,-4.284 -3.888,-5.976 -0.648,-1.728 -0.54,-3.42 0.18,-4.68 -0.252,1.296 2.484,2.772 8.208,4.572 5.868,1.692 15.804,4.932 26.064,5.976 10.08,1.008 23.292,1.152 34.236,0.035 10.836,-1.223 20.808,-3.6 30.456,-7.127 0.252,1.152 0.071,2.196 -0.937,3.672 -1.04,1.33 -2.52,2.88 -4.82,4.5 z" />
      <path
         style="clip-rule:evenodd;fill:#916423;fill-opacity:1;fill-rule:evenodd;stroke:#000000;stroke-width:0.036;stroke-miterlimit:10"
         inkscape:connector-curvature="0"
         id="path17"
         i:knockout="Off"
         d="m 654.51996,394.52993 1.8,26.354 c 4.32,2.664 11.844,4.68 22.572,5.65 10.8,0.828 30.24,1.117 41.652,0.469 11.268,-0.576 19.729,-1.836 25.813,-3.779 -0.469,-4.932 -0.757,-9.648 -0.864,-14.438 -0.145,-4.787 -0.108,-9.359 0.107,-14.004 -5.399,2.916 -11.88,5.076 -19.872,6.336 -8.136,1.225 -18.54,1.621 -27.863,1.332 -9.468,-0.395 -20.376,-1.943 -27.72,-3.275 -7.279,-1.37 -12.392,-2.92 -15.631,-4.65 z" />
      <path
         style="clip-rule:evenodd;fill:#916423;fill-opacity:1;fill-rule:evenodd;stroke:#000000;stroke-width:0.036;stroke-miterlimit:10"
         inkscape:connector-curvature="0"
         id="path19"
         i:knockout="Off"
         d="m 739.19196,428.22993 c -2.593,1.98 -8.425,3.42 -18.036,4.031 -9.792,0.576 -29.196,0.469 -39.313,-0.18 -10.08,-0.648 -16.596,-2.52 -20.916,-3.672 -4.428,-1.297 -4.716,-2.844 -5.328,-3.672 -0.72,-0.9 -1.584,-2.053 1.44,-1.512 3.024,0.539 8.676,3.275 16.38,4.463 7.704,0.9 20.7,1.441 29.124,1.621 8.244,0.107 14.04,0 20.448,-0.469 6.372,-0.504 12.096,-1.225 17.604,-2.305 -0.467,0.53 -0.935,1.11 -1.403,1.69 z" />
      <path
         style="clip-rule:evenodd;fill:#916423;fill-opacity:1;fill-rule:evenodd;stroke:#000000;stroke-width:0.036;stroke-miterlimit:10"
         inkscape:connector-curvature="0"
         id="path21"
         i:knockout="Off"
         d="m 668.77596,432.03993 c 1.188,1.547 2.232,5.111 3.132,10.836 0.792,5.76 1.368,14.65 2.304,23.219 1.008,8.424 2.052,17.281 3.528,27 2.952,2.844 7.056,4.752 12.456,5.869 5.364,1.08 13.789,1.295 19.836,0.504 6.012,-0.828 11.195,-2.809 15.948,-5.652 0.323,-3.961 0.575,-9.107 1.151,-15.732 0.468,-6.732 1.116,-17.641 1.8,-23.688 0.648,-6.084 0.937,-8.641 1.98,-12.385 0.936,-3.779 2.16,-7.02 3.672,-10.008 -5.652,1.188 -11.52,2.088 -18,2.701 -6.48,0.467 -12.528,1.295 -20.484,0.826 -8.063,-0.48 -16.991,-1.59 -27.323,-3.5 z" />
      <path
         inkscape:connector-curvature="0"
         id="path23"
         i:knockout="Off"
         d="m 677.37996,437.00993 1.224,9.793 9.9,0.719 -8.892,-1.656 -2.232,-8.85 z"
         style="clip-rule:evenodd;fill-rule:evenodd;stroke:#000000;stroke-width:0.036;stroke-miterlimit:10" />
      <path
         inkscape:connector-curvature="0"
         id="path25"
         i:knockout="Off"
         d="m 679.57596,451.51993 1.944,17.568 9.864,1.691 -8.676,-2.807 -3.132,-16.45 z"
         style="clip-rule:evenodd;fill-rule:evenodd;stroke:#000000;stroke-width:0.036;stroke-miterlimit:10" />
      <path
         inkscape:connector-curvature="0"
         id="path27"
         i:knockout="Off"
         d="m 683.06796,474.98993 0.972,16.379 7.704,2.018 -6.12,-3.133 -2.556,-15.27 z"
         style="clip-rule:evenodd;fill-rule:evenodd;stroke:#000000;stroke-width:0.036;stroke-miterlimit:10" />
      <path
         inkscape:connector-curvature="0"
         id="path29"
         i:knockout="Off"
         d="m 694.22796,439.16993 0.288,8.389 6.228,0.215 -4.824,-1.152 -1.728,-6.299 0.036,-1.16 z"
         style="clip-rule:evenodd;fill-rule:evenodd;stroke:#000000;stroke-width:0.036;stroke-miterlimit:10" />
      <path
         inkscape:connector-curvature="0"
         id="path31"
         i:knockout="Off"
         d="m 694.55096,451.83993 1.296,19.512 5.795,0.396 -4.428,-1.332 -2.663,-18.58 z"
         style="clip-rule:evenodd;fill-rule:evenodd;stroke:#000000;stroke-width:0.036;stroke-miterlimit:10" />
      <path
         inkscape:connector-curvature="0"
         id="path33"
         i:knockout="Off"
         d="m 696.06396,475.81993 0.576,17.531 5.436,0.396 -4.248,-1.512 -1.764,-16.42 z"
         style="clip-rule:evenodd;fill-rule:evenodd;stroke:#000000;stroke-width:0.036;stroke-miterlimit:10" />
      <path
         inkscape:connector-curvature="0"
         id="path35"
         i:knockout="Off"
         d="m 705.35096,438.76993 0.469,8.785 4.859,-0.217 -3.852,-0.719 -1.548,-6.301 0.072,-1.55 z"
         style="clip-rule:evenodd;fill-rule:evenodd;stroke:#000000;stroke-width:0.036;stroke-miterlimit:10" />
      <path
         inkscape:connector-curvature="0"
         id="path37"
         i:knockout="Off"
         d="m 705.09896,451.22993 0.828,20.447 6.84,-0.324 -5.399,-0.971 -2.269,-19.16 z"
         style="clip-rule:evenodd;fill-rule:evenodd;stroke:#000000;stroke-width:0.036;stroke-miterlimit:10" />
      <path
         inkscape:connector-curvature="0"
         id="path39"
         i:knockout="Off"
         d="m 705.60296,476.35993 0.54,17.354 5.257,-0.217 -4.248,-0.721 -1.549,-16.41 z"
         style="clip-rule:evenodd;fill-rule:evenodd;stroke:#000000;stroke-width:0.036;stroke-miterlimit:10" />
      <path
         inkscape:connector-curvature="0"
         id="path41"
         i:knockout="Off"
         d="m 715.93496,475.52993 -1.188,17.102 4.32,-1.008 -3.097,-0.109 -0.035,-15.98 z"
         style="clip-rule:evenodd;fill-rule:evenodd;stroke:#000000;stroke-width:0.036;stroke-miterlimit:10" />
      <path
         inkscape:connector-curvature="0"
         id="path43"
         i:knockout="Off"
         d="m 715.82796,451.00993 -0.324,19.656 4.896,-1.008 -3.889,0.252 -0.683,-18.9 z"
         style="clip-rule:evenodd;fill-rule:evenodd;stroke:#000000;stroke-width:0.036;stroke-miterlimit:10" />
      <path
         inkscape:connector-curvature="0"
         id="path45"
         i:knockout="Off"
         d="m 716.65596,438.19993 -0.504,8.172 7.235,-0.936 -5.832,-0.18 -0.899,-7.05 z"
         style="clip-rule:evenodd;fill-rule:evenodd;stroke:#000000;stroke-width:0.036;stroke-miterlimit:10" />
      <path
         inkscape:connector-curvature="0"
         id="path47"
         i:knockout="Off"
         d="m 725.00796,438.30993 -0.036,6.623 2.736,-0.324 -1.512,-0.611 -1.188,-5.69 z"
         style="clip-rule:evenodd;fill-rule:evenodd;stroke:#000000;stroke-width:0.036;stroke-miterlimit:10" />
      <path
         inkscape:connector-curvature="0"
         id="path49"
         i:knockout="Off"
         d="m 723.96396,451.29993 -0.792,17.496 3.348,-1.262 -2.304,-0.252 -0.252,-15.99 z"
         style="clip-rule:evenodd;fill-rule:evenodd;stroke:#000000;stroke-width:0.036;stroke-miterlimit:10" />
      <path
         inkscape:connector-curvature="0"
         id="path51"
         i:knockout="Off"
         d="m 722.55896,475.20993 -1.151,16.486 4.14,-2.195 -3.312,0.684 0.323,-14.977 0,0.01 z"
         style="clip-rule:evenodd;fill-rule:evenodd;stroke:#000000;stroke-width:0.036;stroke-miterlimit:10" />
      <path
         inkscape:connector-curvature="0"
         id="path8271-5"
         sodipodi:nodetypes="ccccc"
         style="display:inline;fill:url(#linearGradient8277-9)"
         d="m 679.14588,311.37847 c 9.70508,-5.05667 32.81296,0.52804 41.51224,7.99073 8.69771,7.46132 17.04599,19.86032 7.34092,24.91699 -12.11792,3.79464 -45.85208,-4.50501 -57.93618,-10.83105 -8.6993,-7.46269 -0.62205,-17.01999 9.08302,-22.07667 z" />
      <path
         inkscape:connector-curvature="0"
         id="path8271-2"
         sodipodi:nodetypes="ccccc"
         style="display:inline;fill:url(#linearGradient8277-6)"
         d="m 663.94994,347.10259 c 9.59161,-5.65601 32.42932,0.59063 41.02689,8.93783 8.59602,8.34567 16.8467,22.21426 7.2551,27.87027 -11.97625,4.24441 -45.31599,-5.03897 -57.25881,-12.1148 -8.59759,-8.3472 -0.61478,-19.03728 8.97682,-24.6933 z" />
      <path
         id="path2536"
         style="fill:#a4101b"
         d="m 726.44621,288.00067 c -3.86106,11.7951 -16.43646,18.27722 -28.07009,14.46901 -11.63364,-3.8082 -17.9418,-16.47176 -14.08074,-28.26686 3.86107,-11.79511 16.43647,-18.27723 28.0701,-14.46902 11.63363,3.80821 17.9418,16.47176 14.08073,28.26687 z"
         inkscape:connector-curvature="0" />
      <path
         id="path3797"
         style="fill:#390308"
         d="m 712.58142,259.11253 c -11.93388,-3.90649 -24.8486,2.75004 -28.80923,14.84929 -3.96062,12.09925 2.51774,25.10506 14.45162,29.01155 11.93103,3.90556 24.85272,-2.74975 28.81334,-14.84899 3.96063,-12.09925 -2.5247,-25.10629 -14.45573,-29.01185 z m -0.36803,1.12429 c 11.3323,3.70957 17.47303,16.03351 13.71182,27.52357 -3.76152,11.491 -16.00076,17.7973 -27.33306,14.08774 -11.33419,-3.71019 -17.47239,-16.03225 -13.71087,-27.52325 3.76121,-11.49006 15.99791,-17.79824 27.33211,-14.08806 z"
         inkscape:connector-curvature="0" />
      <path
         id="path6819"
         style="fill:url(#radialGradient2528)"
         d="m 722.93808,282.45085 c 1.11065,5.15694 -1.27398,9.43654 -5.32544,9.55081 -4.04711,0.11415 -8.23522,-3.98005 -9.34588,-9.137 -1.11148,-5.16078 1.27316,-9.44037 5.32027,-9.55452 4.05145,-0.11428 8.23957,3.97993 9.35105,9.14071 z"
         inkscape:connector-curvature="0" />
      <path
         id="path6829"
         style="opacity:0.65157004;fill:#5b050b"
         d="m 692.32335,266.21571 c -3.19523,2.5158 -5.55571,5.83096 -6.52421,9.66071 -2.70087,8.85517 2.42335,19.51426 11.63205,24.78673 -8.2401,-7.62067 -12.08327,-17.98562 -8.99466,-27.42096 0.85366,-2.60783 2.18496,-4.9583 3.88682,-7.02648 z"
         inkscape:connector-curvature="0" />
      <g
         transform="matrix(0.95037691,0.31110083,-0.31110083,0.95037691,642.75452,180.05736)"
         id="g3331">
        <path
           id="path12957"
           style="opacity:0.30314002;fill:#000000;fill-rule:evenodd"
           transform="matrix(0.46633,0,0,0.36182,-68.015,-117.43)"
           d="m 353.75,493.61 c 0,2.76 -4.2,5 -9.37,5 -5.18,0 -9.38,-2.24 -9.38,-5 0,-2.76 4.2,-5 9.38,-5 5.17,0 9.37,2.24 9.37,5 z"
           inkscape:connector-curvature="0" />
        <path
           id="path3319"
           style="fill:#9e6800;fill-rule:evenodd"
           d="M 91.322,62.793 C 91.853,50.869 93.718,38.696 90.759,26.934 89.233,19.932 87.064,12.995 83.54,6.728 82.893,5.0601 84.915,4.3404 85.145,6.3258 c 3.434,5.6182 5.45,11.935 6.958,18.305 1.533,5.726 2.313,11.627 2.343,17.553 0.104,6.485 -0.181,12.976 -0.355,19.452 -0.238,1.196 -1.767,2.239 -2.769,1.157 z"
           inkscape:connector-curvature="0" />
        <path
           id="path6215"
           style="fill:#390308;fill-rule:evenodd"
           d="m 83.969,5.0625 c -0.545,0.1686 -0.907,0.893 -0.563,1.7813 3.514,6.2492 5.696,13.163 7.219,20.156 l 0,0.031 c 2.95,11.725 1.093,23.878 0.563,35.813 l -0.032,0.062 0.063,0.032 c 0.542,0.585 1.264,0.609 1.843,0.312 0.58,-0.297 1.028,-0.883 1.157,-1.531 l 0,-0.031 c 0.174,-6.475 0.479,-12.979 0.375,-19.469 -0.03,-5.939 -0.808,-11.825 -2.344,-17.563 -1.51,-6.377 -3.522,-12.706 -6.969,-18.344 l -0.031,5e-4 C 85.18,5.8375 85.045,5.4537 84.812,5.2498 84.566,5.0336 84.241,4.978 83.969,5.0623 Z m 0.093,0.2813 c 0.181,-0.056 0.355,-0.0302 0.532,0.125 0.177,0.1551 0.351,0.4663 0.406,0.9374 l 0,0.0313 0.031,0 c 3.422,5.5985 5.431,11.918 6.938,18.282 1.529,5.712 2.282,11.616 2.312,17.53 0.104,6.468 -0.17,12.939 -0.343,19.406 -0.001,0.011 0,0.021 0,0.032 -0.117,0.538 -0.513,1.063 -1,1.312 -0.482,0.247 -1.017,0.24 -1.469,-0.219 0.533,-11.894 2.4,-24.065 -0.563,-35.843 -1.527,-7.011 -3.716,-13.934 -7.25,-20.219 l 0.032,-2e-4 c -0.303,-0.7796 0.013,-1.2632 0.374,-1.375 z"
           inkscape:connector-curvature="0" />
        <path
           id="path9880"
           style="opacity:0.79790996;fill:url(#linearGradient2525);fill-rule:evenodd"
           d="m 84.306,6.3001 c -0.038,1.8209 1.569,3.4727 2.182,5.2179 3.413,8.062 5.714,16.661 6.47,25.393 0.615,8.735 -0.556,17.555 -0.783,26.214 2.218,0.054 1.38,-2.871 1.606,-4.289 C 94.032,47.75 94.784,36.442 91.791,25.623 90.264,19.151 88.151,12.759 84.761,7.011 84.673,6.8251 84.667,6.1488 84.306,6.3001 Z"
           inkscape:connector-curvature="0" />
        <path
           id="path3325"
           style="fill:#764500;fill-rule:evenodd"
           d="m 85.58,12.085 c -3.332,-0.627 -3.671,-4.7012 -6.144,-6.3707 -2.834,-2.41 0.466,-5.7922 3.328,-4.0891 3.206,1.0633 2.84,4.9674 5.067,6.9572 1.795,1.7936 -0.47,3.3856 -2.251,3.5026 z"
           inkscape:connector-curvature="0" />
        <path
           id="path6226"
           style="fill:#3e1b13;fill-rule:evenodd"
           d="M 80.594,0.875 C 79.844,1.0029 79.158,1.3757 78.688,1.9062 78.217,2.4368 77.948,3.1078 78,3.8438 78.052,4.5797 78.42,5.3477 79.188,6 c 0.009,0.011 0.02,0.0215 0.031,0.0312 1.129,0.7622 1.832,2.1416 2.656,3.4688 0.824,1.327 1.82,2.629 3.625,2.969 0.031,0.004 0.063,0.004 0.094,0 0.988,-0.066 2.064,-0.512 2.718,-1.25 C 88.64,10.85 88.859,10.388 88.844,9.875 88.828,9.3624 88.588,8.8384 88.094,8.3438 88.084,8.3327 88.074,8.3223 88.062,8.3125 87.045,7.4031 86.598,6.0065 86,4.625 85.41,3.2632 84.62,1.9016 82.938,1.3125 82.917,1.3004 82.895,1.3241 82.875,1.3125 82.106,0.87332 81.325,0.75041 80.594,0.875 Z m 0.094,0.6875 c 0.584,-0.1026 1.231,-0.0079 1.874,0.375 0.03,0.0146 0.062,0.0251 0.094,0.0313 1.473,0.4884 2.079,1.6036 2.656,2.9374 0.572,1.3213 1.066,2.8589 2.25,3.9376 0.012,0.0102 0.02,0.0211 0.032,0.0312 0.37,0.3843 0.522,0.7476 0.531,1.0312 0.009,0.2938 -0.106,0.5448 -0.344,0.8128 -0.461,0.52 -1.378,0.929 -2.156,1 C 84.127,11.419 83.289,10.396 82.5,9.125 81.71,7.8527 80.976,6.3784 79.656,5.4688 l 0,-0.0313 c -0.65,-0.5527 -0.9,-1.1022 -0.937,-1.625 -0.037,-0.5228 0.142,-1.0341 0.5,-1.4375 0.358,-0.4034 0.884,-0.7099 1.469,-0.8125 z"
           inkscape:connector-curvature="0" />
        <path
           id="path14483"
           sodipodi:nodetypes="cccscc"
           style="fill:#573200;fill-rule:evenodd"
           d="m 81.333,2.3669 c -0.889,1.2205 1.233,2.2336 1.689,3.317 1.011,1.4191 1.863,4.5671 3.925,3.9693 C 87.891,9.2889 86.734,8.2244 86.219,7.4673 85.703,6.7102 85.49,5.6457 85.126,4.9171 84.427,3.5775 82.94,1.2739 81.333,2.3669 Z"
           inkscape:connector-curvature="0" />
        <path
           id="path17527"
           sodipodi:nodetypes="cccc"
           style="fill:#8f5400;fill-rule:evenodd"
           d="m 79.852,5.3307 c 2.402,1.6107 2.736,5.4113 5.784,6.1573 C 83.514,9.8291 83.304,7.103 80.754,5.6457 80.025,5.2814 79.678,5.1027 79.852,5.3307 Z"
           inkscape:connector-curvature="0" />
        <path
           id="path4559"
           style="fill:#390308;fill-rule:evenodd"
           d="m 86.188,59.5 c -0.21,0.066 -0.366,0.243 -0.406,0.459 -0.039,0.216 0.045,0.437 0.218,0.572 1.112,0.905 2.498,2.102 4.031,2.781 1.505,0.668 3.252,0.762 4.844,-0.437 l 0.031,0.031 c 0.84,-0.464 1.786,-1.027 2.656,-1.281 0.871,-0.254 1.573,-0.249 2.282,0.375 0.246,0.216 0.626,0.188 0.846,-0.062 0.21,-0.251 0.19,-0.629 -0.07,-0.844 -1.031,-0.912 -2.311,-0.943 -3.401,-0.625 -1.091,0.318 -2.103,0.93 -2.907,1.375 -0.022,0.019 -0.043,0.04 -0.062,0.062 -1.271,1.002 -2.45,0.889 -3.75,0.313 -1.3,-0.577 -2.621,-1.675 -3.75,-2.594 -0.153,-0.136 -0.366,-0.184 -0.562,-0.125 z"
           inkscape:connector-curvature="0" />
      </g>
      <g
         style="stroke-width:1;stroke-miterlimit:10;stroke-dasharray:none"
         transform="translate(718.74165,279.0026)"
         id="g4413">
        <path
           id="path10680"
           sodipodi:nodetypes="ccccccccccc"
           style="fill:#fffb89;fill-opacity:1;fill-rule:evenodd;stroke-width:1;stroke-miterlimit:10;stroke-dasharray:none"
           d="m -32.85856,23.100888 c 0.689,0 -1.614091,-2.224511 0.985909,-3.524511 3.45,-1.72 5.01,-2.05 9.21,-2.05 3.53,0 5.74,1.59 8.71,3.08 3.07,1.53 5.9099995,-0.33 8.6999995,-1.03 3.68,-0.92 7.07,-1.51 9.21,0.64 2.65,2.64 0.89,5.41 -3.57999994,6.53 -5.42000006,1.35 -11.20999956,2.44 -16.88999956,3.58 -4.68,0.94 -7.74,2.45 -12.29,1.54 -2.44,-0.49 -2.440977,-4.245805 -4.210977,-6.015805 -1.903,-1.91 2.352068,3.16e-4 0.155068,-2.749684 z"
           inkscape:connector-curvature="0" />
        <path
           id="path12200"
           style="fill:#000000;fill-opacity:1;fill-rule:evenodd;stroke-width:2;stroke-miterlimit:10;stroke-dasharray:none"
           d="m -23.23234,15.894773 c -3.7,0.02 -7.43,1.37 -10.91,3.06 -0.31,0.12 -0.52,0.41 -0.55,0.74 -0.04,0.33 0.12,0.66 0.4,0.84 0.29,0.17 0.64,0.18 0.93,0.01 3.37,-1.63 6.89,-2.85 10.16,-2.87 3.26,-0.02 6.25,1.06 8.9,4.28 0.11,0.15 0.27,0.25 0.44,0.31 3.68,1.03 7.0799993,-0.66 10.1599993,-1.69 1.53,-0.51 2.99999998,-0.88 4.37000004,-0.81 1.36999996,0.08 2.69999996,0.54 4.12999996,1.85 0.07,0.07 0.15,0.14 0.25,0.18 l 1.06,0.44 0.06,0.03 1.13,0.38 c 0.3,0.11 0.64,0.05 0.89,-0.17 0.25,-0.21 0.36,-0.54 0.29,-0.86 -0.07,-0.31 -0.31,-0.57 -0.62,-0.66 l -1.06,-0.34 -0.03,-0.04 -1.03,-0.43 c -1.61,-1.39 -3.32,-2.07 -4.96999996,-2.16 -1.75000006,-0.09 -3.42000004,0.37 -5.03000004,0.91 -3.17,1.05 -6.0899993,2.4 -8.9399993,1.68 -2.91,-3.36 -6.45,-4.71 -10.03,-4.68 z"
           inkscape:connector-curvature="0" />
      </g>
      <path
         inkscape:connector-curvature="0"
         id="path8271-0"
         sodipodi:nodetypes="ccccc"
         style="display:inline;fill:url(#linearGradient8277-1)"
         d="m 698.4572,294.24232 c 6.69814,-3.50567 22.64646,0.36608 28.65044,5.53978 6.00288,5.17275 11.7646,13.76868 5.06647,17.27435 -8.36341,2.63073 -31.64566,-3.12322 -39.98572,-7.50891 -6.00398,-5.1737 -0.42932,-11.79955 6.26881,-15.30522 z" />
    </g>
  </g>
</svg>
